<?xml version="1.0" encoding="iso-8859-1"?>
<!-- Generator: Adobe Illustrator 18.0.0, SVG Export Plug-In . SVG Version: 6.00 Build 0)  -->
<!DOCTYPE svg PUBLIC "-//W3C//DTD SVG 1.1//EN" "http://www.w3.org/Graphics/SVG/1.1/DTD/svg11.dtd">
<svg version="1.1" id="Capa_1" xmlns="http://www.w3.org/2000/svg" xmlns:xlink="http://www.w3.org/1999/xlink" x="0px" y="0px"
	 viewBox="0 0 412.069 412.069" style="enable-background:new 0 0 412.069 412.069;" xml:space="preserve">
<g>
	<path d="M408.312,206.662c-6.935-13.118-21.043-14.103-21.203-14.115c-78.197-6.223-140.904-38.273-171.041-53.676
		c-7.382-3.773-21.884-10.191-23.307-10.74l-33.407-14.907c-2.024-0.903-4.403-0.366-5.842,1.321
		c-9.365,10.981-8.99,23.533-8.1,29.529c-12.697,9.187-33.352,20.952-34.83,21.814c-3.401,1.982-7.001,2.946-11.006,2.946
		c-18.338,0-37.679-20.283-41.897-24.965c-3.78-19.076-15.964-21.974-23.003-21.974c-5.39,0-9.571,1.665-10.03,1.855
		c-1.263,0.522-2.257,1.539-2.751,2.814C5.472,168.975-1.771,202.946,0.365,227.535c1.184,13.643,5.098,20.954,7.614,24.347
		l-4.857,26.375c-0.149,0.813-0.095,1.651,0.158,2.438c0.612,1.901,7.282,18.583,52.165,18.583h226.963
		c1.9,0,79.201-7.346,116.593-37.819c0.667-0.544,1.183-1.251,1.497-2.053c0,0,9.088-23.223,9.103-23.267
		C413.461,224.486,412.613,214.8,408.312,206.662z M339.947,195.799c12.469,2.605,25.516,4.691,39.053,6.051
		c-7.033,2.587-17.428,5.485-31.041,8.159c-22.1,4.342-25.25,5.74-42.141,18.703c-10.779,8.271-62.898,7.475-109.34-4.655
		l47.51-33.248c6.026,2.73,21.402,9.063,38.355,13.463C305.701,210.332,330.09,208.403,339.947,195.799z M162.568,223.307
		c22.838,9.561,54.933,16.921,85.854,19.689c5.777,0.518,14.739,1.143,24.281,1.143c5.712,0,11.629-0.227,17.197-0.832
		l-25.694,22.983c-22.761-0.184-51.33-2.725-85.013-7.572c-27.214-3.917-50.375-5.792-71.061-6.664
		c-5.496-9.28-11.03-17.75-16.482-25.449C100.815,220.718,126.513,208.216,162.568,223.307z M160.846,211.918l45.631-29.854
		c0.055-0.036,0.063-0.041,0.115-0.078c0.271-0.185,6.768-4.47,15.639-0.649c3.629,1.563,7.631,3.289,11.046,4.763l-49.165,34.405
		c-6.115-1.927-12.05-4.064-17.682-6.423C164.541,213.292,162.681,212.577,160.846,211.918z M196.517,140.39
		c-5.664,3.145-6.123,3.481-6.35,3.648c-2.223,1.638-2.697,4.768-1.061,6.991c0.98,1.331,2.496,2.035,4.03,2.035
		c0.976,0,1.96-0.285,2.82-0.874c0.858-0.534,6.169-3.484,11.568-6.451c1.276,0.649,8.886,4.536,11.603,5.909
		c-2.24,1.51-4.283,2.895-4.881,3.327c-2.238,1.618-2.741,4.743-1.123,6.981c0.977,1.353,2.506,2.071,4.056,2.071
		c1.015,0,2.04-0.308,2.925-0.947c0.791-0.571,5.393-3.669,9.329-6.308c3.557,1.736,7.325,3.54,11.323,5.394l-3.408,3.293
		c-1.986,1.919-2.039,5.085-0.121,7.07c0.981,1.016,2.288,1.525,3.596,1.525c1.252,0,2.504-0.467,3.475-1.404l6.264-6.053
		c3.504,1.545,7.149,3.104,10.92,4.664l-2.429,3.746c-1.502,2.317-0.841,5.413,1.475,6.915c0.841,0.545,1.783,0.806,2.715,0.806
		c1.639,0,3.244-0.805,4.201-2.281l3.49-5.384c4.082,1.594,8.298,3.172,12.637,4.726l-1.682,3.261
		c-1.267,2.454-0.304,5.47,2.15,6.736c0.733,0.378,1.517,0.558,2.289,0.558c1.811,0,3.559-0.987,4.447-2.708l2.345-4.545
		c3.886,1.295,7.86,2.56,11.922,3.786l-0.484,1.015c-1.188,2.492-0.133,5.477,2.359,6.666c0.694,0.331,1.428,0.488,2.149,0.488
		c1.867,0,3.658-1.051,4.517-2.848l1.196-2.507c4.398,1.215,8.891,2.375,13.466,3.475c-30.974,16.427-77.589-10.715-102.062-21.014
		c-13.564-5.709-23.895,0.675-25.216,1.564l-52.763,34.519c-31.371-6.966-53.529,4.336-62.473,10.264
		c-4.552-6.049-9.01-11.551-13.311-16.552c6.887,1.589,13.54,2.307,19.956,2.306c28.325-0.002,52.04-13.874,70.905-27.623
		c7.834-5.71,11.9-12.357,12.084-19.757c0.184-7.366-3.676-13.591-6.959-17.535c4.724-3.32,7.615-4.77,10.407-4.698
		C184.318,134.781,196.037,140.183,196.517,140.39z M158.943,123.991l8.78,3.918c-3.58,2.021-7.589,5.001-12.722,8.956
		C155.177,133.112,156.113,128.478,158.943,123.991z M115.619,174.528c4.404-2.032,44.518-28.994,44.779-29.195
		c2.268,2.605,5.104,6.783,4.974,11.329c-0.118,4.115-2.802,8.115-7.977,11.887c-17.452,12.72-39.349,25.581-65.235,25.579
		c-6.955-0.001-14.201-0.929-21.723-3.039c6.135-2.896,12.965-7.375,17.645-14.06c3.75,1.135,7.607,1.807,11.494,1.807
		C105.318,178.835,110.465,176.906,115.619,174.528z M30.353,132.429c1.121-0.27,2.645-0.533,4.322-0.533
		c7.307,0,11.691,4.93,13.405,15.072c0.149,0.879,0.53,1.703,1.104,2.386c0.721,0.856,13.121,15.407,29.322,23.739
		c-6.3,7.418-16.683,10.987-21.449,12.3c-16.447-16.353-28.105-23.682-29.009-24.239c-1.519-0.938-3.421-0.992-4.992-0.149
		l-3.094,1.663C22.705,153.548,26.124,143.498,30.353,132.429z M16.252,176.014l8.879-4.771c8.705,6.13,40.295,30.512,71.053,80.403
		c-9.063-0.236-24.183-0.651-33.455-0.295c-7.119,0.273-38.889-0.336-46.32-4.882C14.969,244.883,2.722,229.243,16.252,176.014z
		 M391.674,254.516c-34.482,27.118-105.11,34.339-109.5,34.763H55.445c-31.105,0-40.049-8.26-42.158-11.001l3.782-20.538
		c9.386,3.313,43.44,3.578,45.682,3.611c6.627,0.099,70.592,0.87,115.018,7.266c35.462,5.103,65.433,7.691,89.081,7.691
		c20.798,0,45.203-3.906,47.801-4.265c25.327-3.495,62.27-18.585,80.871-27.355L391.674,254.516z M400.709,231.056
		c-9.988,4.971-57.877,27.024-87.054,31.036c-3.161,0.435-21.76,3.39-34.166,3.944l35.428-31.688
		c12.943-9.815,15.797-10.759,34.969-14.526c12.888-2.531,34.248-7.49,43.845-14.053c2.191,1.405,4.402,3.349,5.993,6.016
		C402.648,216.689,402.977,223.165,400.709,231.056z"/>
</g>
<g>
</g>
<g>
</g>
<g>
</g>
<g>
</g>
<g>
</g>
<g>
</g>
<g>
</g>
<g>
</g>
<g>
</g>
<g>
</g>
<g>
</g>
<g>
</g>
<g>
</g>
<g>
</g>
<g>
</g>
</svg>
